<?xml version="1.0" encoding="UTF-8"?>
<svg version="1.1" xmlns="http://www.w3.org/2000/svg" width="500" height="500">
<path d="M0 0 C1.43233978 -0.01429802 1.43233978 -0.01429802 2.89361572 -0.02888489 C4.43272614 -0.02751778 4.43272614 -0.02751778 6.00292969 -0.02612305 C7.06590271 -0.03040817 8.12887573 -0.0346933 9.22406006 -0.03910828 C11.47342212 -0.04484992 13.72280276 -0.04535307 15.97216797 -0.04101562 C19.39811312 -0.03786633 22.8231857 -0.06128056 26.24902344 -0.08666992 C28.43782444 -0.08894412 30.62662775 -0.08964585 32.81542969 -0.08862305 C33.83340637 -0.09783279 34.85138306 -0.10704254 35.90020752 -0.11653137 C45.32991659 -0.05582277 52.9816677 2.27470137 59.95996094 8.9934082 C66.74225578 16.25089568 69.49497697 22.46538138 69.61230469 32.4621582 C69.62253662 33.13956055 69.63276855 33.81696289 69.64331055 34.51489258 C69.56112658 39.19995367 68.30973811 42.18034291 66.17480469 46.2746582 C65.63121537 50.36095031 66.67897226 52.8177902 68.61230469 56.3996582 C73.03298964 64.68686817 73.73972341 73.69728789 71.19824219 82.75512695 C69.12848402 87.86603286 66.89435677 92.15339449 63.17480469 96.2746582 C62.51480469 96.2746582 61.85480469 96.2746582 61.17480469 96.2746582 C61.17480469 96.9346582 61.17480469 97.5946582 61.17480469 98.2746582 C59.12792969 99.74731445 59.12792969 99.74731445 56.42480469 101.3371582 C55.54308594 101.86438477 54.66136719 102.39161133 53.75292969 102.93481445 C49.76783163 105.00585784 46.40104566 105.40493221 41.93481445 105.4675293 C40.89015518 105.48359222 39.84549591 105.49965515 38.7691803 105.51620483 C34.01401549 105.56076778 29.25898674 105.60168538 24.50366211 105.62475586 C21.99445338 105.64134621 19.4852925 105.66867611 16.97631836 105.70678711 C13.35603357 105.7614706 9.73685271 105.78341413 6.11621094 105.7980957 C4.43477745 105.83209976 4.43477745 105.83209976 2.71937561 105.86679077 C-5.05001211 105.84565811 -5.05001211 105.84565811 -9.0090332 102.92944336 C-12.14931737 98.33911536 -11.97894224 94.22442488 -11.98632812 88.859375 C-11.99129303 88.0005069 -11.99625793 87.14163879 -12.00137329 86.25674438 C-12.01599057 83.41244712 -12.02279636 80.56820563 -12.02832031 77.72387695 C-12.03407233 75.74713642 -12.03983006 73.7703959 -12.04559326 71.7936554 C-12.05610215 67.64677673 -12.06194549 63.49991745 -12.06542969 59.35302734 C-12.07091274 54.04340156 -12.09493727 48.73403243 -12.12340164 43.42448711 C-12.14204035 39.3400854 -12.14723429 35.25574535 -12.14876556 31.1713047 C-12.15179007 29.2141155 -12.15981177 27.25692733 -12.17295074 25.29977989 C-12.19003614 22.55903061 -12.18812485 19.81890616 -12.18164062 17.078125 C-12.19085541 16.27219406 -12.20007019 15.46626312 -12.20956421 14.63591003 C-12.17387671 9.81209539 -11.59451573 6.40171067 -8.82519531 2.2746582 C-5.94705214 0.20244449 -3.49233843 0.01921336 0 0 Z M15.17480469 27.2746582 C15.17480469 44.4346582 15.17480469 61.5946582 15.17480469 79.2746582 C19.54730469 79.3777832 23.91980469 79.4809082 28.42480469 79.5871582 C30.48456543 79.65543823 30.48456543 79.65543823 32.5859375 79.72509766 C33.67229492 79.73758545 34.75865234 79.75007324 35.87792969 79.76293945 C36.98813477 79.78912354 38.09833984 79.81530762 39.2421875 79.84228516 C42.37357349 79.52173615 42.37357349 79.52173615 44.53955078 76.89111328 C46.26036523 74.13775879 46.67052841 72.84334935 46.54980469 69.6496582 C46.53691406 68.89426758 46.52402344 68.13887695 46.51074219 67.3605957 C46.27458748 64.97437239 46.27458748 64.97437239 44.17480469 62.2746582 C40.97120716 61.50257836 40.97120716 61.50257836 37.29980469 61.1496582 C29.46653401 60.21751535 29.46653401 60.21751535 26.17480469 59.2746582 C24.96455472 54.28237708 24.23489881 49.49655584 26.28027344 44.66137695 C28.82544045 41.4549913 30.75701393 41.28537681 34.73730469 40.5871582 C39.46467348 39.92786885 39.46467348 39.92786885 43.17480469 37.2746582 C43.49018185 32.9382222 43.62378316 30.94812591 41.17480469 27.2746582 C36.18898277 25.9440861 31.05097671 26.12485414 25.92480469 26.1496582 C24.70277344 26.14385742 24.70277344 26.14385742 23.45605469 26.13793945 C19.18062026 26.02561957 19.18062026 26.02561957 15.17480469 27.2746582 Z " fill="#D7E1E4" transform="translate(33.8251953125,182.725341796875)"/>
<path d="M0 0 C8.23531644 6.3715343 12.11702669 19.18875243 16.23291016 28.39868164 C19.03933127 34.67771605 21.98552183 40.85309408 25.10131836 46.98339844 C27.49193074 51.69836789 29.76725178 56.45839622 32 61.25 C36.19935073 70.25513588 40.5364538 79.2102779 45.1875 87.9921875 C46.67436596 91.20896483 46.59083268 93.26408717 46 96.75 C42.6082169 100.82342474 38.23274785 104.51066498 33 105.75 C28.98406265 106.07783162 26.42084459 105.88169494 23 103.75 C21.7355957 102.01000977 21.7355957 102.01000977 20.67578125 99.94140625 C20.28712891 99.19439453 19.89847656 98.44738281 19.49804688 97.67773438 C19.10681641 96.89720703 18.71558594 96.11667969 18.3125 95.3125 C17.70825195 94.14750977 17.70825195 94.14750977 17.09179688 92.95898438 C15.52093161 89.90408559 14.08833466 87.01500399 13 83.75 C-6.8 83.255 -6.8 83.255 -27 82.75 C-27.66 85.06 -28.32 87.37 -29 89.75 C-30.05780646 92.03236073 -31.18391676 94.2842731 -32.375 96.5 C-33.25285156 98.16289062 -33.25285156 98.16289062 -34.1484375 99.859375 C-35.91897482 102.62350499 -37.19940712 104.10126387 -40 105.75 C-45.96090989 106.88541141 -51.03803613 103.78183679 -56 100.75 C-57.93324366 99.15850166 -58.88216483 98.27806876 -59.43359375 95.80688477 C-59.44476281 89.57943592 -57.84136118 85.17260241 -55 79.6875 C-54.58991699 78.86024414 -54.17983398 78.03298828 -53.75732422 77.18066406 C-52.52124173 74.69514118 -51.26270604 72.22207976 -50 69.75 C-49.33432193 68.42398689 -48.67013866 67.09722177 -48.0078125 65.76953125 C-47.05917224 63.86881006 -46.10928992 61.96882457 -45.15332031 60.07177734 C-42.27709911 54.35427445 -39.50702692 48.58826914 -36.75 42.8125 C-36.29101318 41.85448486 -35.83202637 40.89646973 -35.35913086 39.90942383 C-32.81873497 34.59808467 -30.31166565 29.27330738 -27.83984375 23.9296875 C-27.31358398 22.80425537 -26.78732422 21.67882324 -26.24511719 20.51928711 C-25.23123258 18.35055934 -24.22742478 16.17708262 -23.23535156 13.99829102 C-20.50139193 8.18176825 -17.97504191 3.87413819 -13 -0.25 C-8.30567852 -1.81477383 -4.60530829 -1.91887845 0 0 Z M-7 42.75 C-8.33838733 45.20570175 -9.67086232 47.66429916 -11 50.125 C-11.3815625 50.82367188 -11.763125 51.52234375 -12.15625 52.2421875 C-14.25724744 55.7928946 -14.25724744 55.7928946 -15 59.75 C-9.39 59.75 -3.78 59.75 2 59.75 C-1.96 51.335 -1.96 51.335 -6 42.75 C-6.33 42.75 -6.66 42.75 -7 42.75 Z " fill="#D6DFE2" transform="translate(435,184.25)"/>
<path d="M0 0 C0.89907074 -0.00524185 1.79814148 -0.0104837 2.72445679 -0.0158844 C4.62570161 -0.02229688 6.52698614 -0.02097762 8.42822266 -0.01245117 C11.30575354 -0.00399495 14.18126151 -0.03262532 17.05859375 -0.06445312 C37.29360803 -0.14472113 37.29360803 -0.14472113 43.7109375 4.43359375 C44.53759766 6.43188477 44.53759766 6.43188477 44.7109375 8.43359375 C44.3809375 9.17609375 44.0509375 9.91859375 43.7109375 10.68359375 C42.32305407 14.50027317 42.50820739 17.56767555 43.7109375 21.43359375 C46.10456119 24.64788841 47.72274123 26.10419499 51.5234375 27.37109375 C55.60190541 27.45106371 58.79923886 26.58012611 62.7109375 25.43359375 C64.73397822 29.62533413 65.09683594 33.47362062 65.0859375 38.05859375 C65.08432617 38.7635498 65.08271484 39.46850586 65.08105469 40.19482422 C64.85750942 49.82261201 61.56782119 58.51900451 54.73828125 65.4296875 C44.31391188 75.1745954 34.26821771 77.79841612 20.2109375 77.55859375 C18.69113281 77.54505859 18.69113281 77.54505859 17.140625 77.53125 C14.66380949 77.50788382 12.18750371 77.47512543 9.7109375 77.43359375 C9.73414063 78.40039062 9.75734375 79.3671875 9.78125 80.36328125 C10.05278623 99.95268037 10.05278623 99.95268037 6.06640625 104.17578125 C2.8668225 105.88434836 0.38539721 105.83172263 -3.2265625 105.80859375 C-5.03447266 105.82019531 -5.03447266 105.82019531 -6.87890625 105.83203125 C-10.60090116 105.39715899 -12.43673293 104.85220595 -15.2890625 102.43359375 C-17.38327845 97.60651948 -17.58012189 93.04180287 -17.5637207 87.86132812 C-17.56883163 87.02152908 -17.57394257 86.18173004 -17.57920837 85.31648254 C-17.59305575 82.55336286 -17.59215153 79.79049391 -17.58984375 77.02734375 C-17.59373282 75.09973051 -17.59806792 73.17211812 -17.60282898 71.24450684 C-17.61028035 67.2096885 -17.61000737 63.17495768 -17.60473633 59.14013672 C-17.59893746 53.9751798 -17.61588806 48.81058099 -17.639081 43.64568329 C-17.65382569 39.66678786 -17.65468913 35.68797858 -17.65157127 31.70906067 C-17.65208393 29.80490916 -17.65731116 27.90075275 -17.66738319 25.99662781 C-17.67974707 23.33280252 -17.67295674 20.66967387 -17.66137695 18.00585938 C-17.66902069 17.22334305 -17.67666443 16.44082672 -17.68453979 15.63459778 C-17.63860267 10.84325296 -16.89014051 7.60545055 -14.2890625 3.43359375 C-9.99649108 -0.33123512 -5.42714436 -0.0185606 0 0 Z M8.7109375 27.43359375 C8.68359279 29.76700874 8.66393513 32.10009324 8.6484375 34.43359375 C8.63683594 35.73296875 8.62523437 37.03234375 8.61328125 38.37109375 C8.6442274 42.45199223 9.13852737 46.39517266 9.7109375 50.43359375 C13.25216577 50.57960989 16.79261394 50.66789935 20.3359375 50.74609375 C21.33496094 50.78798828 22.33398438 50.82988281 23.36328125 50.87304688 C29.81241155 51.02336895 29.81241155 51.02336895 35.359375 48.1015625 C38.16043247 44.92361856 38.65010103 43.25488613 38.9609375 39.05859375 C38.63876518 34.38709508 37.37053623 31.95428233 33.94042969 28.8112793 C31.17880556 27.10476977 29.51643507 27.08683546 26.2890625 27.140625 C25.26425781 27.15029297 24.23945313 27.15996094 23.18359375 27.16992188 C21.58837891 27.20762695 21.58837891 27.20762695 19.9609375 27.24609375 C18.88199219 27.25962891 17.80304688 27.27316406 16.69140625 27.28710938 C14.0307433 27.32242791 11.37109454 27.37175176 8.7109375 27.43359375 Z " fill="#D4DDE0" transform="translate(236.2890625,182.56640625)"/>
<path d="M0 0 C0 0.66 0 1.32 0 2 C0.556875 2.185625 1.11375 2.37125 1.6875 2.5625 C6.91200296 5.810164 9.43368166 11.21021614 11 17 C11.3359375 20.65625 11.3359375 20.65625 11.375 24.5 C11.40335937 25.7684375 11.43171875 27.036875 11.4609375 28.34375 C10.79868247 33.59689162 8.074602 37.63402443 4 41 C0.26579403 42.24473532 -3.27365238 42.23209785 -7.16796875 42.31640625 C-7.96278152 42.33718735 -8.7575943 42.35796844 -9.57649231 42.37937927 C-12.11340763 42.44472087 -14.65042573 42.50368808 -17.1875 42.5625 C-18.90821372 42.60569986 -20.62891708 42.64931463 -22.34960938 42.69335938 C-26.56630113 42.80038648 -30.7830962 42.90169724 -35 43 C-34.28056759 46.19592085 -34.28056759 46.19592085 -31.4375 47.66796875 C-27.51795536 49.1867923 -24.13503886 49.40965787 -20 49.3125 C-19.31421875 49.31572266 -18.6284375 49.31894531 -17.921875 49.32226562 C-13.56777333 49.27656418 -10.0602125 48.51447694 -6 47 C-2.12867361 46.52596003 -0.56841968 46.63827838 2.75 48.75 C6.26049019 52.26049019 7.29958732 55.05292821 7.375 60 C7.28986983 63.22075798 7.20904537 64.66030128 5.5 67.4375 C-2.78095618 72.61309761 -11.08717161 73.20386782 -20.625 73.25 C-21.66785156 73.270625 -22.71070313 73.29125 -23.78515625 73.3125 C-33.26416151 73.35983586 -41.3610515 71.90282384 -49 66 C-50.010625 65.2575 -51.02125 64.515 -52.0625 63.75 C-59.55902719 57.27127807 -63.4569078 47.12152069 -64.31640625 37.43359375 C-64.51755909 25.00234853 -62.59333219 15.08082441 -53.88671875 5.73046875 C-40.50246767 -6.72913632 -15.58114182 -12.3574573 0 0 Z M-35 23 C-35.71827345 25.5984784 -35.71827345 25.5984784 -36 28 C-32.70840684 28.05790353 -29.41694397 28.09356261 -26.125 28.125 C-24.71927734 28.15013672 -24.71927734 28.15013672 -23.28515625 28.17578125 C-22.38925781 28.18222656 -21.49335938 28.18867188 -20.5703125 28.1953125 C-19.32918701 28.21102295 -19.32918701 28.21102295 -18.06298828 28.22705078 C-15.77601843 28.19302257 -15.77601843 28.19302257 -14 26 C-14.20918586 23.28058379 -14.57880459 21.54716039 -16.25390625 19.37109375 C-19.13938312 17.10531661 -21.86966553 17.47293262 -25.41796875 17.58203125 C-29.37544351 18.22265122 -32.46610506 19.86168975 -35 23 Z " fill="#D6DFE2" transform="translate(172,217)"/>
<path d="M0 0 C10.16317927 1.33287597 17.58064094 6.65341627 24 14.5625 C30.88945492 24.15499465 32.16741714 34.59395335 30.7265625 46.203125 C28.53477644 56.37632066 23.06159213 64.52513394 15 71 C6.01313133 76.70374018 -3.39187259 79.14199037 -14 78 C-20.37772867 76.52036695 -26.59189496 74.80163842 -32 71 C-32 70.34 -32 69.68 -32 69 C-32.5878125 68.74347656 -33.175625 68.48695313 -33.78125 68.22265625 C-41.70590576 63.85572447 -45.27693712 55.16918863 -48 47 C-48.92419859 32.94006079 -47.62926676 22.31959004 -38.15625 11.23828125 C-35.10471273 8.07065289 -31.93240197 5.03229178 -28 3 C-26.68 3 -25.36 3 -24 3 C-23.773125 4.11375 -23.54625 5.2275 -23.3125 6.375 C-22.40112162 10.13746801 -22.40112162 10.13746801 -19.5 11.375 C-18.675 11.58125 -17.85 11.7875 -17 12 C-16.34 12.33 -15.68 12.66 -15 13 C-11.30321041 13.42008973 -9.22667284 13.10222501 -5.8125 11.5625 C-2.0903032 8.17116514 -1.16857673 4.79731501 0 0 Z M-20.66796875 30.83984375 C-23.04496179 34.69461546 -22.84897823 38.64146609 -22 43 C-19.98301545 46.42949055 -17.5821343 49.20893285 -14 51 C-9.01933027 51.54644038 -5.1041693 51.54204675 -0.5625 49.3125 C3.21900226 45.89992479 4.81661237 43.68105326 5.375 38.5625 C4.86943796 33.75966067 3.61392138 30.46261625 0 27.1875 C-7.39404628 22.79728502 -15.0567273 24.65039475 -20.66796875 30.83984375 Z " fill="#D6DFE2" transform="translate(351,212)"/>
<path d="M0 0 C1.94712891 -0.04640625 1.94712891 -0.04640625 3.93359375 -0.09375 C8.4894241 0.65166035 9.69454349 1.94691614 12.5625 5.5 C13.19741821 8.53527832 13.19741821 8.53527832 13.20947266 11.95507812 C13.22523346 13.23991089 13.24099426 14.52474365 13.25723267 15.84851074 C13.24828259 17.24276592 13.23802752 18.63701324 13.2265625 20.03125 C13.22993331 21.4694459 13.23478814 22.90763901 13.24105835 24.3458252 C13.24841743 27.35533862 13.2377569 30.36410841 13.21435547 33.37353516 C13.18586634 37.2241459 13.20227577 41.07301423 13.23221779 44.9235611 C13.25031802 47.89199872 13.24452068 50.86002571 13.23157883 53.82847595 C13.22825225 55.24779977 13.23230564 56.66716131 13.24397659 58.08644104 C13.25672622 60.0725937 13.23383509 62.05887772 13.20947266 64.04492188 C13.20549469 65.17345581 13.20151672 66.30198975 13.19741821 67.46472168 C12.35883497 71.47363728 10.72835628 72.98084874 7.5625 75.5 C3.96875 76.12890625 3.96875 76.12890625 0.0625 76.0625 C-1.2265625 76.06378906 -2.515625 76.06507813 -3.84375 76.06640625 C-7.95413777 75.41857339 -9.63569504 74.54748562 -12.4375 71.5 C-13.42559089 67.87828524 -13.56856359 64.42836906 -13.58276367 60.6875 C-13.58914352 59.5428125 -13.59552338 58.398125 -13.60209656 57.21875 C-13.60320938 55.9915625 -13.6043222 54.764375 -13.60546875 53.5 C-13.60879715 52.2315625 -13.61212555 50.963125 -13.61555481 49.65625 C-13.6206135 46.97652673 -13.62339649 44.29690494 -13.62280273 41.6171875 C-13.622701 38.19083273 -13.63637264 34.76468466 -13.65357494 31.33837891 C-13.66739031 28.05892706 -13.66678404 24.779477 -13.66796875 21.5 C-13.67515427 20.2728125 -13.68233978 19.045625 -13.68974304 17.78125 C-13.68666641 16.6365625 -13.68358978 15.491875 -13.68041992 14.3125 C-13.68184494 13.30832031 -13.68326996 12.30414063 -13.68473816 11.26953125 C-13.34180478 7.42803395 -12.4215825 4.55586264 -9.77734375 1.71875 C-6.46432882 -0.00689384 -3.71825542 0.02948072 0 0 Z " fill="#D9E4E9" transform="translate(200.4375,212.5)"/>
<path d="M0 0 C0.70769531 -0.02835938 1.41539062 -0.05671875 2.14453125 -0.0859375 C5.94109966 -0.10007742 7.96122308 0.38621814 11.09375 2.5625 C13.65719312 6.26963312 13.79480062 8.51993803 13.75 13 C13.76289063 14.2890625 13.77578125 15.578125 13.7890625 16.90625 C12.95695527 21.40941852 11.85203827 22.87119567 8.125 25.5 C4.53125 26.12890625 4.53125 26.12890625 0.625 26.0625 C-0.6640625 26.06378906 -1.953125 26.06507813 -3.28125 26.06640625 C-7.37017795 25.42195565 -9.05108437 24.48723911 -11.875 21.5 C-13.82658633 16.69243369 -13.44989411 10.53424071 -12.0625 5.625 C-9.04517203 0.22557099 -5.96811324 -0.02150671 0 0 Z " fill="#D3DBDD" transform="translate(199.875,177.5)"/>
<path d="M0 0 C2 1.75 2 1.75 3 4 C2.6875 6.75 2.6875 6.75 2 9 C3.32 9.66 4.64 10.32 6 11 C6.375 14.25 6.375 14.25 6 18 C2.54600577 21.54488882 -0.46087901 22.27092188 -5.25 22.4375 C-7.828125 22.43359375 -7.828125 22.43359375 -10 22 C-12.06723714 18.89914429 -12.24497423 18.27068319 -12.1953125 14.76953125 C-12.18886719 13.96708984 -12.18242187 13.16464844 -12.17578125 12.33789062 C-12.15902344 11.50451172 -12.14226562 10.67113281 -12.125 9.8125 C-12.11597656 8.96751953 -12.10695313 8.12253906 -12.09765625 7.25195312 C-12.07410703 5.16784757 -12.03823647 3.08388783 -12 1 C-7.52236924 -0.9849291 -4.82315213 -1.25044685 0 0 Z M-7 4 C-7 4.99 -7 5.98 -7 7 C-5.35 6.67 -3.7 6.34 -2 6 C-2.66 5.34 -3.32 4.68 -4 4 C-4.99 4 -5.98 4 -7 4 Z M-6 12 C-6.33 13.65 -6.66 15.3 -7 17 C-4.36 16.67 -1.72 16.34 1 16 C1 15.01 1 14.02 1 13 C-1.31 12.67 -3.62 12.34 -6 12 Z " fill="#B1ADA9" transform="translate(311,315)"/>
<path d="M0 0 C2 1.75 2 1.75 3 4 C2.6875 6.75 2.6875 6.75 2 9 C3.32 9.66 4.64 10.32 6 11 C6.375 14.25 6.375 14.25 6 18 C2.5290599 21.56228063 -0.4419222 22.25654011 -5.25 22.375 C-9.69230769 22.30769231 -9.69230769 22.30769231 -12 20 C-12.22705078 18.02880859 -12.22705078 18.02880859 -12.1953125 15.6484375 C-12.18886719 14.79765625 -12.18242187 13.946875 -12.17578125 13.0703125 C-12.15902344 12.18085938 -12.14226562 11.29140625 -12.125 10.375 C-12.11597656 9.4778125 -12.10695312 8.580625 -12.09765625 7.65625 C-12.0740497 5.43723414 -12.0411231 3.21874923 -12 1 C-7.52236924 -0.9849291 -4.82315213 -1.25044685 0 0 Z M-7 4 C-7 4.99 -7 5.98 -7 7 C-5.35 6.67 -3.7 6.34 -2 6 C-2.66 5.34 -3.32 4.68 -4 4 C-4.99 4 -5.98 4 -7 4 Z M-6 12 C-6.33 13.65 -6.66 15.3 -7 17 C-4.36 16.67 -1.72 16.34 1 16 C1 15.01 1 14.02 1 13 C-1.31 12.67 -3.62 12.34 -6 12 Z " fill="#BEBCBA" transform="translate(177,315)"/>
<path d="M0 0 C2.68637711 2.68637711 2.98343234 5.3784777 4 9 C4.99 10.485 4.99 10.485 6 12 C5.78646642 14.84711445 5.39706897 16.49463949 3.625 18.75 C0.72329667 20.98207948 -2.03239919 21.15842174 -5.5625 21.1875 C-6.74005859 21.20876953 -6.74005859 21.20876953 -7.94140625 21.23046875 C-10 21 -10 21 -12 19 C-12.22705078 16.93701172 -12.22705078 16.93701172 -12.1953125 14.4296875 C-12.18886719 13.53378906 -12.18242187 12.63789063 -12.17578125 11.71484375 C-12.15902344 10.77769531 -12.14226562 9.84054687 -12.125 8.875 C-12.11597656 7.93011719 -12.10695312 6.98523438 -12.09765625 6.01171875 C-12.07404522 3.67422708 -12.04111516 1.33723877 -12 -1 C-7.37230264 -2.12307285 -4.51508653 -1.61861593 0 0 Z M-7 3 C-7.33 3.99 -7.66 4.98 -8 6 C-6.35 6 -4.7 6 -3 6 C-3.33 5.01 -3.66 4.02 -4 3 C-4.99 3 -5.98 3 -7 3 Z M-7 11 C-7 12.65 -7 14.3 -7 16 C-3.535 15.505 -3.535 15.505 0 15 C0 14.01 0 13.02 0 12 C-2.31 11.67 -4.62 11.34 -7 11 Z " fill="#A9A09C" transform="translate(249,316)"/>
<path d="M0 0 C0.33 0 0.66 0 1 0 C1 30.69 1 61.38 1 93 C2.485 92.505 2.485 92.505 4 92 C4.66 93.98 5.32 95.96 6 98 C23.16 98 40.32 98 58 98 C58 98.33 58 98.66 58 99 C50.54372316 99.12680254 43.08772445 99.21435293 35.63061523 99.2746582 C33.0940512 99.29979839 30.55755958 99.33391537 28.02124023 99.37719727 C24.37465549 99.43786661 20.72902868 99.46621574 17.08203125 99.48828125 C15.94852737 99.51408768 14.8150235 99.5398941 13.64717102 99.56648254 C5.77571541 99.56928506 5.77571541 99.56928506 1.80737305 96.65698242 C-1.33476643 92.03778696 -1.14272432 87.9097591 -1.12939453 82.52124023 C-1.13114685 81.65594696 -1.13289917 80.79065369 -1.13470459 79.8991394 C-1.13911015 77.03560386 -1.13618991 74.17212994 -1.1328125 71.30859375 C-1.13348585 69.32227059 -1.13445614 67.33594751 -1.13571167 65.34962463 C-1.13718683 61.18595597 -1.13503965 57.02230875 -1.13037109 52.85864258 C-1.12467021 47.51284551 -1.12795624 42.1670986 -1.13394356 36.82130337 C-1.13755088 32.71991088 -1.13640985 28.61853036 -1.13381577 24.51713753 C-1.13314716 22.54549211 -1.1339726 20.57384562 -1.13629532 18.60220146 C-1.13882503 15.85122662 -1.13497687 13.10033394 -1.12939453 10.34936523 C-1.13141876 9.52905319 -1.13344299 8.70874115 -1.13552856 7.86357117 C-1.11426483 2.22852966 -1.11426483 2.22852966 0 0 Z " fill="#968985" transform="translate(23,189)"/>
<path d="M0 0 C0.33 1.32 0.66 2.64 1 4 C-2.153368 4.70074844 -4.72724974 5 -8 5 C-7.67 5.99 -7.34 6.98 -7 8 C-5.33927151 8.68132451 -3.672233 9.34742127 -2 10 C0.48038907 13.7205836 0.46337203 15.59796571 0 20 C-1.5 22.4375 -1.5 22.4375 -4 24 C-8.72724791 24.60028545 -10.85264482 24.64538729 -15 22.3125 C-17 20 -17 20 -17.3125 17.25 C-17.209375 16.5075 -17.10625 15.765 -17 15 C-15.68 15 -14.36 15 -13 15 C-12.67 15.66 -12.34 16.32 -12 17 C-9.67843403 17.40729228 -7.3431213 17.74438677 -5 18 C-5.65589738 16.01735205 -5.65589738 16.01735205 -7 14 C-8.65204456 13.29788106 -10.31923769 12.63028587 -12 12 C-14 9 -14 9 -13.875 6 C-13 3 -13 3 -11.5 1.125 C-7.72592959 -0.57333168 -4.07515329 -0.235105 0 0 Z " fill="#D3D5D4" transform="translate(335,313)"/>
<path d="M0 0 C1.98 0.495 1.98 0.495 4 1 C4 3.64 4 6.28 4 9 C4.54269531 8.48308594 5.08539063 7.96617187 5.64453125 7.43359375 C6.35996094 6.77488281 7.07539063 6.11617188 7.8125 5.4375 C8.87404297 4.44556641 8.87404297 4.44556641 9.95703125 3.43359375 C10.96830078 2.72396484 10.96830078 2.72396484 12 2 C12.99 2.33 13.98 2.66 15 3 C14.45276317 6.37462715 13.9451 8.08235 12 11 C12.3609375 11.61488281 12.721875 12.22976563 13.09375 12.86328125 C13.5578125 13.67152344 14.021875 14.47976563 14.5 15.3125 C14.9640625 16.11300781 15.428125 16.91351563 15.90625 17.73828125 C17 20 17 20 17 23 C15.68 23.33 14.36 23.66 13 24 C12.566875 23.2575 12.13375 22.515 11.6875 21.75 C10.23420091 19.38166074 8.70392394 17.19075935 7 15 C6.855625 15.5775 6.71125 16.155 6.5625 16.75 C6.04166667 18.83333333 5.52083333 20.91666667 5 23 C3.68 23 2.36 23 1 23 C-0.33684341 18.98946978 -0.40162427 15.13893471 -0.625 10.9375 C-0.6765625 10.10927734 -0.728125 9.28105469 -0.78125 8.42773438 C-0.82507813 7.63560547 -0.86890625 6.84347656 -0.9140625 6.02734375 C-0.9548291 5.30281006 -0.9955957 4.57827637 -1.03759766 3.83178711 C-1 2 -1 2 0 0 Z " fill="#DDDFE0" transform="translate(211,313)"/>
<path d="M0 0 C2.01171875 0.875 2.01171875 0.875 3.2421875 3.0625 C5.28437807 9.06403963 6.70944153 14.52717838 7.01171875 20.875 C6.68171875 21.535 6.35171875 22.195 6.01171875 22.875 C4.69171875 22.545 3.37171875 22.215 2.01171875 21.875 C1.68171875 20.225 1.35171875 18.575 1.01171875 16.875 C-0.30828125 16.875 -1.62828125 16.875 -2.98828125 16.875 C-2.98828125 18.525 -2.98828125 20.175 -2.98828125 21.875 C-4.92578125 22.4375 -4.92578125 22.4375 -6.98828125 22.875 C-7.98828125 21.875 -7.98828125 21.875 -8.30078125 18.625 C-8.24496818 12.49672507 -6.25977098 6.5205639 -3.98828125 0.875 C-1.98828125 -0.125 -1.98828125 -0.125 0 0 Z M-0.98828125 9.875 C0.01171875 11.875 0.01171875 11.875 0.01171875 11.875 Z " fill="#DAE0E0" transform="translate(290.98828125,314.125)"/>
<path d="M0 0 C1.31613281 -0.04898438 2.63226563 -0.09796875 3.98828125 -0.1484375 C8.63267708 0.50874206 9.78343637 1.76481013 12.6875 5.375 C13.32241821 8.41027832 13.32241821 8.41027832 13.33447266 11.83007812 C13.35023346 13.11491089 13.36599426 14.39974365 13.38223267 15.72351074 C13.37328259 17.11776592 13.36302752 18.51201324 13.3515625 19.90625 C13.35493331 21.3444459 13.35978814 22.78263901 13.36605835 24.2208252 C13.37341743 27.23033862 13.3627569 30.23910841 13.33935547 33.24853516 C13.31086634 37.0991459 13.32727577 40.94801423 13.35721779 44.7985611 C13.37531802 47.76699872 13.36952068 50.73502571 13.35657883 53.70347595 C13.35325225 55.12279977 13.35730564 56.54216131 13.36897659 57.96144104 C13.38172622 59.9475937 13.35883509 61.93387772 13.33447266 63.91992188 C13.33049469 65.04845581 13.32651672 66.17698975 13.32241821 67.33972168 C12.48284947 71.35334855 10.86829951 72.86464813 7.6875 75.375 C4.8487599 75.74271245 2.66929849 75.86130804 -0.125 75.6875 C-0.81787109 75.66494141 -1.51074219 75.64238281 -2.22460938 75.61914062 C-3.92151573 75.56062661 -5.61729861 75.4709548 -7.3125 75.375 C-7.3125 75.045 -7.3125 74.715 -7.3125 74.375 C-2.6925 74.375 1.9275 74.375 6.6875 74.375 C7.0175 73.055 7.3475 71.735 7.6875 70.375 C8.6775 70.375 9.6675 70.375 10.6875 70.375 C10.62631707 62.0820082 10.54923215 53.7893825 10.45178509 45.49674511 C10.40703829 41.64620744 10.36779202 37.79577662 10.34106445 33.94506836 C10.31507393 30.22958435 10.27470265 26.5145106 10.22431374 22.79928017 C10.20761604 21.38114839 10.19611983 19.96294561 10.18988609 18.54472923 C10.18027746 16.5598976 10.15053716 14.57519418 10.11987305 12.59057617 C10.10876999 11.46028488 10.09766693 10.32999359 10.08622742 9.16545105 C9.90658169 6.37833229 9.90658169 6.37833229 8.35212708 4.5070343 C5.70071626 2.70393496 3.27318595 3.05464948 0.125 3.125 C-1.03128906 3.14046875 -2.18757812 3.1559375 -3.37890625 3.171875 C-6.24592643 3.18156227 -6.24592643 3.18156227 -8.3125 4.375 C-8.6425 3.385 -8.9725 2.395 -9.3125 1.375 C-6.3254054 -0.1185473 -3.2751552 0.06868772 0 0 Z " fill="#DDE5E2" transform="translate(200.3125,212.625)"/>
<path d="M0 0 C1.32 0 2.64 0 4 0 C4.375 2.0625 4.375 2.0625 4 5 C3.03845668 6.05713535 2.03203873 7.07406854 1 8.0625 C-2.17913492 11.42074111 -2.40729628 13.86219336 -2.375 18.4375 C-2.27935788 20.29341261 -2.16413806 22.14888744 -2 24 C-3.9375 24.5625 -3.9375 24.5625 -6 25 C-7.72422794 23.27577206 -7.41597549 20.72821239 -7.6875 18.375 C-8.50749874 13.02276013 -9.78741459 10.14744689 -13.7578125 6.5 C-15 5 -15 5 -15 1 C-12.6875 0.75 -12.6875 0.75 -10 1 C-8.02389614 3.04424538 -7 4.1176825 -7 7 C-6.01 7 -5.02 7 -4 7 C-3.71125 6.401875 -3.4225 5.80375 -3.125 5.1875 C-2 3 -2 3 0 0 Z " fill="#BEBDB9" transform="translate(197,312)"/>
<path d="M0 0 C0.33 1.65 0.66 3.3 1 5 C-0.65 5.33 -2.3 5.66 -4 6 C-4 6.66 -4 7.32 -4 8 C-3.01 8.66 -2.02 9.32 -1 10 C-1.33 11.32 -1.66 12.64 -2 14 C-2.99 14 -3.98 14 -5 14 C-5 14.99 -5 15.98 -5 17 C-3.35 17.33 -1.7 17.66 0 18 C0.5625 19.9375 0.5625 19.9375 1 22 C0 23 0 23 -3.375 23.1875 C-7 23 -7 23 -10 21 C-10.34057617 19.02880859 -10.34057617 19.02880859 -10.29296875 16.6484375 C-10.28330078 15.79765625 -10.27363281 14.946875 -10.26367188 14.0703125 C-10.23853516 13.18085938 -10.21339844 12.29140625 -10.1875 11.375 C-10.17396484 10.4778125 -10.16042969 9.580625 -10.14648438 8.65625 C-10.11106925 6.43690211 -10.06168461 4.21874812 -10 2 C-6.48375245 0.05841983 -4.0284349 -0.18311068 0 0 Z " fill="#CCD0CF" transform="translate(266,314)"/>
<path d="M0 0 C1.9375 0.8125 1.9375 0.8125 4 2 C5.04976964 5.14930893 5.10131595 7.38814456 5.0625 10.6875 C5.05347656 11.68136719 5.04445313 12.67523438 5.03515625 13.69921875 C5.02355469 14.45847656 5.01195312 15.21773438 5 16 C6.98 16 8.96 16 11 16 C11.66 17.32 12.32 18.64 13 20 C9.97159851 21.75328507 7.80125633 22.25093193 4.3125 22.1875 C3.52488281 22.18105469 2.73726563 22.17460937 1.92578125 22.16796875 C0 22 0 22 -1 21 C-1.09862603 19.60825641 -1.1307898 18.21163857 -1.1328125 16.81640625 C-1.13410156 15.97142578 -1.13539063 15.12644531 -1.13671875 14.25585938 C-1.13091797 12.92264648 -1.13091797 12.92264648 -1.125 11.5625 C-1.12886719 10.67755859 -1.13273437 9.79261719 -1.13671875 8.88085938 C-1.13478516 7.61145508 -1.13478516 7.61145508 -1.1328125 6.31640625 C-1.13168457 5.53724854 -1.13055664 4.75809082 -1.12939453 3.95532227 C-1 2 -1 2 0 0 Z " fill="#B0AFAC" transform="translate(269,315)"/>
<path d="M0 0 C0.33 0 0.66 0 1 0 C1 1.65 1 3.3 1 5 C0.67 5 0.34 5 0 5 C-0.02545836 12.38321187 -0.04291229 19.76641232 -0.05493164 27.1496582 C-0.05994503 29.65877709 -0.06675742 32.16789308 -0.07543945 34.67700195 C-0.08763652 38.29378985 -0.0932584 41.91053896 -0.09765625 45.52734375 C-0.10281754 46.64020248 -0.10797882 47.75306122 -0.11329651 48.89964294 C-0.11368509 54.3551692 0.04945919 59.6699024 0.78468323 65.07911682 C1 67 1 67 1 71 C-2 69 -2 69 -2.67842102 66.73828125 C-3.01608527 63.86303212 -3.1342733 61.08280278 -3.14526367 58.1875 C-3.15164352 57.0428125 -3.15802338 55.898125 -3.16459656 54.71875 C-3.16570938 53.4915625 -3.1668222 52.264375 -3.16796875 51 C-3.17129715 49.7315625 -3.17462555 48.463125 -3.17805481 47.15625 C-3.1831135 44.47652673 -3.18589649 41.79690494 -3.18530273 39.1171875 C-3.185201 35.69083273 -3.19887264 32.26468466 -3.21607494 28.83837891 C-3.22989031 25.55892706 -3.22928404 22.279477 -3.23046875 19 C-3.23765427 17.7728125 -3.24483978 16.545625 -3.25224304 15.28125 C-3.24916641 14.1365625 -3.24608978 12.991875 -3.24291992 11.8125 C-3.24434494 10.80832031 -3.24576996 9.80414063 -3.24723816 8.76953125 C-2.96118586 5.56520881 -2.35244471 2.35244471 0 0 Z " fill="#9B9289" transform="translate(190,215)"/>
<path d="M0 0 C0.33 0 0.66 0 1 0 C1.33 5.94 1.66 11.88 2 18 C2.33 18 2.66 18 3 18 C3 17.01 3 16.02 3 15 C3.62599617 13.31763529 4.28752268 11.6476038 5 10 C6.32 10.33 7.64 10.66 9 11 C8.01 11.33 7.02 11.66 6 12 C5.26676204 14.01508358 5.26676204 14.01508358 5 16 C7.64 15.67 10.28 15.34 13 15 C13 14.01 13 13.02 13 12 C12.01 11.67 11.02 11.34 10 11 C11.25 9.4375 11.25 9.4375 13 8 C15.13745922 8.25146579 16.45925779 8.45925779 18 10 C18.4375 13.3125 18.4375 13.3125 18 17 C14.5290599 20.56228063 11.5580778 21.25654011 6.75 21.375 C2.30769231 21.30769231 2.30769231 21.30769231 0 19 C-0.22705078 17.02880859 -0.22705078 17.02880859 -0.1953125 14.6484375 C-0.18886719 13.79765625 -0.18242187 12.946875 -0.17578125 12.0703125 C-0.15902344 11.18085938 -0.14226562 10.29140625 -0.125 9.375 C-0.11597656 8.4778125 -0.10695312 7.580625 -0.09765625 6.65625 C-0.0740497 4.43723414 -0.0411231 2.21874923 0 0 Z " fill="#A8A29C" transform="translate(165,316)"/>
<path d="M0 0 C0.66 0 1.32 0 2 0 C2 1.98 2 3.96 2 6 C4.3431213 5.74438677 6.67843403 5.40729228 9 5 C9.33 4.34 9.66 3.68 10 3 C10.33 4.32 10.66 5.64 11 7 C11.9590625 7.2165625 11.9590625 7.2165625 12.9375 7.4375 C15 8 15 8 16 9 C16.04092937 11.33297433 16.04241723 13.66705225 16 16 C13.50935112 16.68707555 11.62113708 17 9 17 C8.67 17.66 8.34 18.32 8 19 C6.02 19 4.04 19 2 19 C2.33 18.01 2.66 17.02 3 16 C4.65 16 6.3 16 8 16 C8 15.34 8 14.68 8 14 C8.99 14 9.98 14 11 14 C11 12.68 11 11.36 11 10 C7.04 9.67 3.08 9.34 -1 9 C-0.67 6.03 -0.34 3.06 0 0 Z " fill="#C5C5C2" transform="translate(301,317)"/>
<path d="M0 0 C1 1 1 1 1.09765625 2.84765625 C1.04882812 5.92382812 1.04882812 5.92382812 1 9 C-5.75 10 -5.75 10 -8 10 C-8.99 10.33 -9.98 10.66 -11 11 C-12 10 -12 10 -12.09765625 7.49609375 C-12.08605469 6.48675781 -12.07445312 5.47742188 -12.0625 4.4375 C-12.05347656 3.42558594 -12.04445312 2.41367187 -12.03515625 1.37109375 C-12.02355469 0.58863281 -12.01195312 -0.19382812 -12 -1 C-7.38169693 -2.13068799 -4.51476072 -1.56280179 0 0 Z M-7 3 C-7.33 3.99 -7.66 4.98 -8 6 C-6.35 6 -4.7 6 -3 6 C-3.33 5.01 -3.66 4.02 -4 3 C-4.99 3 -5.98 3 -7 3 Z " fill="#DCE4E3" transform="translate(249,316)"/>
<path d="M0 0 C2.4375 0.375 2.4375 0.375 5 1 C6.22625047 3.45250093 6.03425355 4.84310435 5.87890625 7.5703125 C5.83056641 8.46621094 5.78222656 9.36210937 5.73242188 10.28515625 C5.67634766 11.22230469 5.62027344 12.15945313 5.5625 13.125 C5.51029297 14.06988281 5.45808594 15.01476562 5.40429688 15.98828125 C5.27443239 18.3258419 5.1394613 20.66299545 5 23 C3.0625 23.5625 3.0625 23.5625 1 24 C-1.38098514 21.61901486 -0.48182288 15.77766848 -0.625 12.5625 C-0.6765625 11.58216797 -0.728125 10.60183594 -0.78125 9.59179688 C-0.82507813 8.65529297 -0.86890625 7.71878906 -0.9140625 6.75390625 C-0.9548291 5.89095947 -0.9955957 5.0280127 -1.03759766 4.13891602 C-1 2 -1 2 0 0 Z " fill="#ACA7A2" transform="translate(229,313)"/>
<path d="M0 0 C0.98071472 0.00015106 1.96142944 0.00030212 2.97186279 0.00045776 C4.54861786 0.01594162 4.54861786 0.01594162 6.15722656 0.03173828 C7.78014618 0.03598312 7.78014618 0.03598312 9.43585205 0.04031372 C12.8899646 0.05150469 16.34381744 0.07660758 19.79785156 0.10205078 C22.14029573 0.11208197 24.48274397 0.12120758 26.82519531 0.12939453 C32.56616927 0.15144049 38.30699186 0.18490744 44.04785156 0.22705078 C44.04785156 0.55705078 44.04785156 0.88705078 44.04785156 1.22705078 C38.19220828 2.216489 32.45246819 2.43890231 26.52050781 2.54345703 C25.53159042 2.56423813 24.54267303 2.58501923 23.52378845 2.60643005 C20.38604218 2.67145632 17.2482171 2.73059096 14.11035156 2.78955078 C11.97427593 2.83278069 9.83820806 2.87639637 7.70214844 2.92041016 C2.48413113 3.02708916 -2.73396337 3.12893991 -7.95214844 3.22705078 C-7.62214844 4.21705078 -7.29214844 5.20705078 -6.95214844 6.22705078 C-7.94214844 6.22705078 -8.93214844 6.22705078 -9.95214844 6.22705078 C-9.70214844 4.35205078 -9.70214844 4.35205078 -8.95214844 2.22705078 C-5.93053409 0.2815515 -3.55107278 -0.0183045 0 0 Z " fill="#B4ACA6" transform="translate(33.9521484375,182.77294921875)"/>
<path d="M0 0 C0.33 0 0.66 0 1 0 C1.11595557 8.38850469 1.2047454 16.77667344 1.25906086 25.16578197 C1.28513253 29.06141191 1.32048427 32.95649273 1.37719727 36.85180664 C1.43160664 40.61252026 1.46143883 44.37270644 1.47438622 48.13378334 C1.48361035 49.56714492 1.50162371 51.00047828 1.52865028 52.43361473 C1.56504759 54.44398106 1.56704327 56.45488047 1.56762695 58.46557617 C1.57873001 59.60919113 1.58983307 60.75280609 1.60127258 61.93107605 C0.80633403 65.98848038 -0.78914174 67.47647643 -4 70 C-6.8387401 70.36771245 -9.01820151 70.48630804 -11.8125 70.3125 C-12.50537109 70.28994141 -13.19824219 70.26738281 -13.91210938 70.24414062 C-15.60901573 70.18562661 -17.30479861 70.0959548 -19 70 C-19 69.67 -19 69.34 -19 69 C-14.38 69 -9.76 69 -5 69 C-4.67 67.68 -4.34 66.36 -4 65 C-3.01 65 -2.02 65 -1 65 C-0.67 43.55 -0.34 22.1 0 0 Z " fill="#C3C0B6" transform="translate(212,218)"/>
<path d="M0 0 C0.99 0.33 1.98 0.66 3 1 C2.34 1 1.68 1 1 1 C1.70030592 8.0143853 1.70030592 8.0143853 5.6875 13.5 C6.120625 13.995 6.55375 14.49 7 15 C6.75 16.9375 6.75 16.9375 6 19 C5.814375 19.7425 5.62875 20.485 5.4375 21.25 C5.293125 21.8275 5.14875 22.405 5 23 C3.68 23 2.36 23 1 23 C-0.33684341 18.98946978 -0.40162427 15.13893471 -0.625 10.9375 C-0.6765625 10.10927734 -0.728125 9.28105469 -0.78125 8.42773438 C-0.82507813 7.63560547 -0.86890625 6.84347656 -0.9140625 6.02734375 C-0.9548291 5.30281006 -0.9955957 4.57827637 -1.03759766 3.83178711 C-1 2 -1 2 0 0 Z " fill="#B0ADA9" transform="translate(211,313)"/>
<path d="M0 0 C7.59 0 15.18 0 23 0 C23 0.33 23 0.66 23 1 C15.74 1 8.48 1 1 1 C1.04125 3.26875 1.0825 5.5375 1.125 7.875 C1.19112847 21.09063195 1.19112847 21.09063195 -1 26 C-3.078125 27.26171875 -3.078125 27.26171875 -5 28 C-4.690625 27.195625 -4.38125 26.39125 -4.0625 25.5625 C-1.7567283 17.83138313 -1.86521402 10.01227751 -2 2 C-1.34 2 -0.68 2 0 2 C0 1.34 0 0.68 0 0 Z " fill="#94918D" transform="translate(245,259)"/>
<path d="M0 0 C0.99 0 1.98 0 3 0 C3 2.66666667 3 5.33333333 3 8 C5.31 8 7.62 8 10 8 C9.67 8.99 9.34 9.98 9 11 C7.35 11.33 5.7 11.66 4 12 C3.29733387 14.97574276 3.29733387 14.97574276 3 18 C3.66 18.33 4.32 18.66 5 19 C3.0625 19.5625 3.0625 19.5625 1 20 C0 19 0 19 -0.11352539 17.14233398 C-0.10828857 16.35157471 -0.10305176 15.56081543 -0.09765625 14.74609375 C-0.09443359 13.89208984 -0.09121094 13.03808594 -0.08789062 12.15820312 C-0.07951172 11.26037109 -0.07113281 10.36253906 -0.0625 9.4375 C-0.05798828 8.53580078 -0.05347656 7.63410156 -0.04882812 6.70507812 C-0.03700225 4.46998686 -0.0205222 2.23502563 0 0 Z " fill="#DBE0DF" transform="translate(166,315)"/>
<path d="M0 0 C2 1.75 2 1.75 3 4 C2.6875 6.75 2.6875 6.75 2 9 C1.01 8.34 0.02 7.68 -1 7 C-4.63939932 7.31730524 -4.63939932 7.31730524 -8 8 C-8 6.02 -8 4.04 -8 2 C-8.66 2 -9.32 2 -10 2 C-10.33 2.99 -10.66 3.98 -11 5 C-11 3.35 -11 1.7 -11 0 C-7.15783458 -1.38317955 -3.92585641 -0.9279297 0 0 Z M-7 4 C-7 4.99 -7 5.98 -7 7 C-5.35 6.67 -3.7 6.34 -2 6 C-2.66 5.34 -3.32 4.68 -4 4 C-4.99 4 -5.98 4 -7 4 Z " fill="#BFBBB6" transform="translate(311,315)"/>
<path d="M0 0 C3 1 3 1 4.16796875 2.7421875 C4.50441406 3.44601562 4.84085938 4.14984375 5.1875 4.875 C5.53167969 5.57367188 5.87585938 6.27234375 6.23046875 6.9921875 C7 9 7 9 7 12 C5.68 12.33 4.36 12.66 3 13 C0.7903399 9.42245507 -1.15490111 5.77805964 -3 2 C-2.01 2 -1.02 2 0 2 C0 1.34 0 0.68 0 0 Z " fill="#BFBFBB" transform="translate(221,324)"/>
<path d="M0 0 C0.99 0 1.98 0 3 0 C3 2.85046273 2.55621634 5.2189183 2 8 C2 8.99 2 9.98 2 11 C2.66 11.33 3.32 11.66 4 12 C1.36 11.67 -1.28 11.34 -4 11 C-4.33 8.69 -4.66 6.38 -5 4 C-3.35 3.34 -1.7 2.68 0 2 C0 1.34 0 0.68 0 0 Z " fill="#D9E6E9" transform="translate(346,224)"/>
<path d="M0 0 C4.8 3.32307692 4.8 3.32307692 5.8125 6.75 C5.874375 7.4925 5.93625 8.235 6 9 C4.68 9 3.36 9 2 9 C1.67 8.34 1.34 7.68 1 7 C1 8.32 1 9.64 1 11 C0.01 11.495 0.01 11.495 -1 12 C-1.65555119 14.52733235 -1.65555119 14.52733235 -2 17 C-1.01 17 -0.02 17 1 17 C1.33 16.34 1.66 15.68 2 15 C1.67 16.32 1.34 17.64 1 19 C-0.32 18.67 -1.64 18.34 -3 18 C-3.36517527 11.42684522 -2.13619737 6.20514474 0 0 Z " fill="#A29D9A" transform="translate(286,318)"/>
<path d="M0 0 C0.33 0.66 0.66 1.32 1 2 C0.01 2.495 0.01 2.495 -1 3 C-1.72159424 4.64363134 -2.39351421 6.31050386 -3 8 C-5.97 7.505 -5.97 7.505 -9 7 C-9.33 5.02 -9.66 3.04 -10 1 C-10.99 1.495 -10.99 1.495 -12 2 C-12 1.01 -12 0.02 -12 -1 C-7.49016565 -2.36661647 -4.37909149 -1.60005266 0 0 Z M-7 3 C-7.33 3.99 -7.66 4.98 -8 6 C-6.35 6 -4.7 6 -3 6 C-3.33 5.01 -3.66 4.02 -4 3 C-4.99 3 -5.98 3 -7 3 Z " fill="#BBB8B4" transform="translate(249,316)"/>
<path d="M0 0 C0.66 0.33 1.32 0.66 2 1 C-1.75 6.75 -1.75 6.75 -4 9 C-4 10.32 -4 11.64 -4 13 C-5.95309888 14.40113616 -7.95708818 15.73339467 -10 17 C-10.66 17.99 -11.32 18.98 -12 20 C-10.92581064 11.40648512 -6.25627861 5.62362122 0 0 Z " fill="#BCB9B5" transform="translate(122,219)"/>
<path d="M0 0 C2.3125 -0.25 2.3125 -0.25 5 0 C6.97610386 2.04424538 8 3.1176825 8 6 C8.99 6.33 9.98 6.66 11 7 C9.68 7 8.36 7 7 7 C6.67 8.32 6.34 9.64 6 11 C4.98805294 9.92781799 3.99081943 8.84173622 3 7.75 C2.443125 7.14671875 1.88625 6.5434375 1.3125 5.921875 C0 4 0 4 0 0 Z " fill="#BBB9B1" transform="translate(182,313)"/>
<path d="M0 0 C0.66 0 1.32 0 2 0 C1.67 1.65 1.34 3.3 1 5 C7.27 5 13.54 5 20 5 C20 5.33 20 5.66 20 6 C18.81921875 6.06058594 17.6384375 6.12117187 16.421875 6.18359375 C14.8645723 6.26802582 13.30728121 6.35267249 11.75 6.4375 C10.97269531 6.47681641 10.19539063 6.51613281 9.39453125 6.55664062 C8.64042969 6.59853516 7.88632813 6.64042969 7.109375 6.68359375 C6.07248535 6.73858032 6.07248535 6.73858032 5.01464844 6.79467773 C2.93371671 7.00675524 1.01427578 7.44508677 -1 8 C-1 7.34 -1 6.68 -1 6 C-2.32 6 -3.64 6 -5 6 C-5.33 4.68 -5.66 3.36 -6 2 C-4.02 2 -2.04 2 0 2 C0 1.34 0 0.68 0 0 Z " fill="#AFAEA9" transform="translate(135,240)"/>
<path d="M0 0 C0.66 0 1.32 0 2 0 C2 1.98 2 3.96 2 6 C4.3431213 5.74438677 6.67843403 5.40729228 9 5 C9.33 4.34 9.66 3.68 10 3 C10.33 3.99 10.66 4.98 11 6 C10.01 6.495 10.01 6.495 9 7 C9 7.66 9 8.32 9 9 C5.7 9 2.4 9 -1 9 C-0.67 6.03 -0.34 3.06 0 0 Z " fill="#DDE4E4" transform="translate(301,317)"/>
<path d="M0 0 C0.67289063 -0.020625 1.34578125 -0.04125 2.0390625 -0.0625 C5.19957511 -0.08738593 7.32209898 0.07991678 10.1015625 1.640625 C11.625 3.25 11.625 3.25 11.625 5.25 C10.635 5.58 9.645 5.91 8.625 6.25 C7.965 5.26 7.305 4.27 6.625 3.25 C3.56881033 2.84619287 3.56881033 2.84619287 0.125 3 C-1.62296875 3.02320313 -1.62296875 3.02320313 -3.40625 3.046875 C-6.3032189 3.05364464 -6.3032189 3.05364464 -8.375 4.25 C-8.705 3.26 -9.035 2.27 -9.375 1.25 C-6.37213071 -0.25143464 -3.2910504 0.0249322 0 0 Z " fill="#B9B6B1" transform="translate(200.375,212.75)"/>
<path d="M0 0 C0.33 0 0.66 0 1 0 C2.93586219 8.71137986 2.61312108 17.5073565 0 26 C-0.66 25.67 -1.32 25.34 -2 25 C-2 23 -2 23 -1 22 C-1.165 21.34 -1.33 20.68 -1.5 20 C-1.665 19.34 -1.83 18.68 -2 18 C-1.67 17.67 -1.34 17.34 -1 17 C-0.76298761 14.14122091 -0.57780818 11.30116703 -0.4375 8.4375 C-0.39431641 7.63119141 -0.35113281 6.82488281 -0.30664062 5.99414062 C-0.20024738 3.99631195 -0.09959112 1.9981793 0 0 Z " fill="#B6B4AF" transform="translate(380,238)"/>
<path d="M0 0 C1.45947705 0.06006078 2.91779272 0.1488689 4.375 0.25 C5.59316406 0.31960938 5.59316406 0.31960938 6.8359375 0.390625 C9 1 9 1 10.2890625 3.046875 C10.64097656 4.01367188 10.64097656 4.01367188 11 5 C10.34 5 9.68 5 9 5 C8.34 6.32 7.68 7.64 7 9 C6.34 8.01 5.68 7.02 5 6 C2.44816596 4.79549696 2.44816596 4.79549696 0 4 C0 2.68 0 1.36 0 0 Z " fill="#CCD0CE" transform="translate(323,321)"/>
<path d="M0 0 C0.66 0.99 1.32 1.98 2 3 C1.01 3.33 0.02 3.66 -1 4 C-0.67 4.99 -0.34 5.98 0 7 C-0.46019531 7.88945312 -0.92039062 8.77890625 -1.39453125 9.6953125 C-3.22964175 13.47269324 -3.54789645 16.75868962 -3.6875 20.875 C-3.72166016 21.56335938 -3.75582031 22.25171875 -3.79101562 22.9609375 C-3.87264091 24.64008613 -3.9380157 26.32001168 -4 28 C-3.34 28.33 -2.68 28.66 -2 29 C-2.66 29.99 -3.32 30.98 -4 32 C-7.04083489 22.87749534 -5.62228062 11.59209439 -1.97265625 2.90625 C-1 1 -1 1 0 0 Z " fill="#A9A09A" transform="translate(308,230)"/>
<path d="M0 0 C3.30477928 1.65238964 4.19939987 5.20781576 5.6875 8.4375 C6.02072266 9.13166016 6.35394531 9.82582031 6.69726562 10.54101562 C7.53091594 12.33137066 8.27264253 14.16389131 9 16 C8.67 16.66 8.34 17.32 8 18 C3.56890875 15.04593917 1.92536385 10.88057347 0 6 C-0.3125 2.375 -0.3125 2.375 0 0 Z " fill="#BCBAB5" transform="translate(456,225)"/>
<path d="M0 0 C1.32 0 2.64 0 4 0 C4.39169887 2.66355234 4.40564529 4.39224373 2.88671875 6.66796875 C1.63610683 8.1510888 0.32135486 9.57954352 -1 11 C-1.33 10.01 -1.66 9.02 -2 8 C-2.33 7.67 -2.66 7.34 -3 7 C-3 3.46013806 -2.41847197 2.50484597 0 0 Z " fill="#B6B1AB" transform="translate(197,312)"/>
<path d="M0 0 C0 1.65 0 3.3 0 5 C2.64 4.67 5.28 4.34 8 4 C7.34 5.32 6.68 6.64 6 8 C3.03 8 0.06 8 -3 8 C-3 5.69 -3 3.38 -3 1 C-1 0 -1 0 0 0 Z " fill="#DEE0DF" transform="translate(241,328)"/>
<path d="M0 0 C3.14521114 2.57335457 3.96681892 5.1166642 5 9 C5.2234478 11.79894146 5.19095067 14.56956014 5.125 17.375 C5.11597656 18.11105469 5.10695313 18.84710938 5.09765625 19.60546875 C5.07430144 21.4037888 5.03843836 23.20193911 5 25 C4.67 25 4.34 25 4 25 C3.96261719 24.02417969 3.92523438 23.04835937 3.88671875 22.04296875 C3.82097656 20.77066406 3.75523438 19.49835938 3.6875 18.1875 C3.62949219 16.92292969 3.57148437 15.65835938 3.51171875 14.35546875 C2.96512739 10.77133148 2.54863686 10.27750528 0 8 C-0.39078556 5.27492202 -0.13616953 2.76878044 0 0 Z " fill="#B5B0AB" transform="translate(98,198)"/>
<path d="M0 0 C2.13745922 0.25146579 3.45925779 0.45925779 5 2 C5.04092937 4.33297433 5.04241723 6.66705225 5 9 C3.68 7.68 2.36 6.36 1 5 C1 5.99 1 6.98 1 8 C-0.32 7.67 -1.64 7.34 -3 7 C-2.01 7 -1.02 7 0 7 C0 6.01 0 5.02 0 4 C-0.99 3.67 -1.98 3.34 -3 3 C-1.75 1.4375 -1.75 1.4375 0 0 Z " fill="#B7B3AE" transform="translate(178,324)"/>
<path d="M0 0 C0 4.62 0 9.24 0 14 C-0.99 14 -1.98 14 -3 14 C-3 9.71 -3 5.42 -3 1 C-1 0 -1 0 0 0 Z " fill="#D3D7D2" transform="translate(233,323)"/>
<path d="M0 0 C0.66 0 1.32 0 2 0 C2.33 4.29 2.66 8.58 3 13 C1.66666667 13 0.33333333 13 -1 13 C-1.02708567 11.39592672 -1.04643483 9.7917215 -1.0625 8.1875 C-1.07410156 7.29417969 -1.08570313 6.40085937 -1.09765625 5.48046875 C-1 3 -1 3 0 0 Z " fill="#DCDEDE" transform="translate(270,319)"/>
<path d="M0 0 C1.32 0.33 2.64 0.66 4 1 C-2.12170809 5.70218158 -7.31997704 8.07005985 -15 9 C-15 8.34 -15 7.68 -15 7 C-13.02 7 -11.04 7 -9 7 C-9 6.34 -9 5.68 -9 5 C-5.535 4.505 -5.535 4.505 -2 4 C-2 3.34 -2 2.68 -2 2 C-1.34 2 -0.68 2 0 2 C0 1.34 0 0.68 0 0 Z " fill="#B2ADA9" transform="translate(364,280)"/>
<path d="M0 0 C2.20949832 4.41029783 2.2370648 8.48940324 2.125 13.3125 C2.11597656 14.05306641 2.10695313 14.79363281 2.09765625 15.55664062 C2.07424213 17.37123467 2.03837615 19.18566071 2 21 C1.67 21 1.34 21 1 21 C0.67 15.39 0.34 9.78 0 4 C-2.64 3.67 -5.28 3.34 -8 3 C-8 2.67 -8 2.34 -8 2 C-2.25 0 -2.25 0 0 0 Z " fill="#847A75" transform="translate(299,208)"/>
<path d="M0 0 C1.9375 0.8125 1.9375 0.8125 4 2 C5.04976964 5.14930893 5.10131595 7.38814456 5.0625 10.6875 C5.05347656 11.68136719 5.04445313 12.67523438 5.03515625 13.69921875 C5.02355469 14.45847656 5.01195312 15.21773438 5 16 C4.67 16 4.34 16 4 16 C3.67 12.04 3.34 8.08 3 4 C2.34 4 1.68 4 1 4 C1 4.99 1 5.98 1 7 C0.34 7 -0.32 7 -1 7 C-0.67 4.69 -0.34 2.38 0 0 Z " fill="#928C83" transform="translate(269,315)"/>
<path d="M0 0 C0.99 0 1.98 0 3 0 C1.9497036 3.38428841 0.94675369 4.02867109 -2.25 5.75 C-5.83409231 6.94469744 -8.26921095 7.34705014 -12 7 C-12.66 6.67 -13.32 6.34 -14 6 C-13.67 5.01 -13.34 4.02 -13 3 C-11.9275 3.165 -10.855 3.33 -9.75 3.5 C-5.96971248 4.08810915 -5.96971248 4.08810915 -2 4 C-2 3.34 -2 2.68 -2 2 C-1.34 2 -0.68 2 0 2 C0 1.34 0 0.68 0 0 Z " fill="#AEA7A0" transform="translate(474,283)"/>
<path d="M0 0 C2.58396679 -0.08112454 5.16537568 -0.14054748 7.75 -0.1875 C8.47960937 -0.21263672 9.20921875 -0.23777344 9.9609375 -0.26367188 C13.2676931 -0.308764 15.58932057 -0.22638385 18.515625 1.38671875 C20 3 20 3 20 5 C18.68 4.67 17.36 4.34 16 4 C16 3.34 16 2.68 16 2 C10.39 2 4.78 2 -1 2 C-0.67 1.34 -0.34 0.68 0 0 Z " fill="#AFA69F" transform="translate(192,178)"/>
<path d="M0 0 C0.66 0 1.32 0 2 0 C0.68554313 5.98808129 -2.61191026 9.03429323 -7 13 C-7.33 12.01 -7.66 11.02 -8 10 C-7.67 9.34 -7.34 8.68 -7 8 C-6.34 8 -5.68 8 -5 8 C-5 7.34 -5 6.68 -5 6 C-4.34 6 -3.68 6 -3 6 C-2.67 4.68 -2.34 3.36 -2 2 C-1.34 2 -0.68 2 0 2 C0 1.34 0 0.68 0 0 Z " fill="#BAB6B3" transform="translate(295,238)"/>
<path d="M0 0 C3.37462715 0.54723683 5.08235 1.0549 8 3 C7.37240135 5.92879371 6.41377341 8.36095629 5 11 C4.26919734 9.02253397 3.60578253 7.01927511 3 5 C3.33 4.34 3.66 3.68 4 3 C2.68 2.67 1.36 2.34 0 2 C0 1.34 0 0.68 0 0 Z " fill="#BFBBB4" transform="translate(273,185)"/>
<path d="M0 0 C0.90492188 0.02320313 1.80984375 0.04640625 2.7421875 0.0703125 C4.10730469 0.09738281 4.10730469 0.09738281 5.5 0.125 C6.19867188 0.14820313 6.89734375 0.17140625 7.6171875 0.1953125 C7.6171875 0.5253125 7.6171875 0.8553125 7.6171875 1.1953125 C6.67746094 1.46794922 6.67746094 1.46794922 5.71875 1.74609375 C4.90148437 1.99746094 4.08421875 2.24882812 3.2421875 2.5078125 C2.43007812 2.75144531 1.61796875 2.99507812 0.78125 3.24609375 C-1.71465879 4.10899435 -1.71465879 4.10899435 -3.3828125 7.1953125 C-4.3728125 7.1953125 -5.3628125 7.1953125 -6.3828125 7.1953125 C-3.84811499 0.31541926 -3.84811499 0.31541926 0 0 Z " fill="#CCCECA" transform="translate(226.3828125,183.8046875)"/>
<path d="M0 0 C0.66 0 1.32 0 2 0 C0.63855967 5.19822672 -1.46730171 8.09543873 -5 12 C-5.66 11.34 -6.32 10.68 -7 10 C-6.67 9.01 -6.34 8.02 -6 7 C-5.01 7 -4.02 7 -3 7 C-2.67 5.35 -2.34 3.7 -2 2 C-1.34 2 -0.68 2 0 2 C0 1.34 0 0.68 0 0 Z " fill="#BFBDB9" transform="translate(377,265)"/>
<path d="M0 0 C0.99 0.66 1.98 1.32 3 2 C2.67 5.3 2.34 8.6 2 12 C-2.67201205 13.20568053 -7.21496292 13.09382426 -12 13 C-12 12.67 -12 12.34 -12 12 C-11.21753906 11.86722656 -10.43507813 11.73445312 -9.62890625 11.59765625 C-8.61699219 11.42105469 -7.60507813 11.24445313 -6.5625 11.0625 C-5.55316406 10.88847656 -4.54382813 10.71445313 -3.50390625 10.53515625 C-1.0712562 10.25248903 -1.0712562 10.25248903 0 9 C0.07179964 7.48071962 0.08392007 5.95832518 0.0625 4.4375 C0.05347656 3.61121094 0.04445313 2.78492188 0.03515625 1.93359375 C0.02355469 1.29550781 0.01195313 0.65742188 0 0 Z " fill="#928A82" transform="translate(76,211)"/>
<path d="M0 0 C7.35342179 -0.20177072 13.94887561 -0.21211746 21 2 C21 2.33 21 2.66 21 3 C13.34944238 4.27509294 13.34944238 4.27509294 9 2 C6.64435404 1.55188863 6.64435404 1.55188863 4.25 1.375 C3.45078125 1.30023438 2.6515625 1.22546875 1.828125 1.1484375 C1.22484375 1.09945312 0.6215625 1.05046875 0 1 C0 0.67 0 0.34 0 0 Z " fill="#ACA6A2" transform="translate(143,211)"/>
<path d="M0 0 C0.99 0.33 1.98 0.66 3 1 C2.67 2.65 2.34 4.3 2 6 C1.67 5.01 1.34 4.02 1 3 C0.34 3 -0.32 3 -1 3 C-1.33 3.99 -1.66 4.98 -2 6 C-2.66 6 -3.32 6 -4 6 C-4.33 6.99 -4.66 7.98 -5 9 C-5.99 9 -6.98 9 -8 9 C-8 7 -8 7 -6.35546875 5.23828125 C-5.64003906 4.60277344 -4.92460937 3.96726562 -4.1875 3.3125 C-3.47980469 2.66925781 -2.77210938 2.02601563 -2.04296875 1.36328125 C-1.36878906 0.91339844 -0.69460937 0.46351563 0 0 Z " fill="#ACA69D" transform="translate(223,315)"/>
<path d="M0 0 C1.98 0.495 1.98 0.495 4 1 C3.01 1 2.02 1 1 1 C1 1.99 1 2.98 1 4 C2.65 4.33 4.3 4.66 6 5 C6.5625 6.9375 6.5625 6.9375 7 9 C6 10 6 10 2.4375 10.0625 C1.303125 10.041875 0.16875 10.02125 -1 10 C-1 9.67 -1 9.34 -1 9 C0.65 9 2.3 9 4 9 C3.67 7.68 3.34 6.36 3 5 C2.01 5 1.02 5 0 5 C0 3.35 0 1.7 0 0 Z " fill="#89756D" transform="translate(260,327)"/>
<path d="M0 0 C1.48117801 0.28127421 2.95993249 0.57533732 4.4375 0.875 C5.67306641 1.11863281 5.67306641 1.11863281 6.93359375 1.3671875 C7.61550781 1.57601563 8.29742187 1.78484375 9 2 C9.33 2.66 9.66 3.32 10 4 C13.02934491 4.65772428 13.02934491 4.65772428 16 5 C16 5.66 16 6.32 16 7 C10.36382567 6.53031881 5.78582459 5.09327687 1 2 C0.67 1.34 0.34 0.68 0 0 Z " fill="#ADA8A2" transform="translate(123,282)"/>
<path d="M0 0 C2 3 2 3 1.625 5.6875 C1.41875 6.450625 1.2125 7.21375 1 8 C0.01 8.33 -0.98 8.66 -2 9 C-2 9.66 -2 10.32 -2 11 C-2.99 11.33 -3.98 11.66 -5 12 C-3.68938409 7.76570244 -2.05643741 3.92592596 0 0 Z " fill="#BDB8B2" transform="translate(402,219)"/>
<path d="M0 0 C2.67901932 2.31881505 3.66204403 4.31814468 4.6875 7.6875 C4.93886719 8.49574219 5.19023437 9.30398437 5.44921875 10.13671875 C5.63097656 10.75160156 5.81273437 11.36648437 6 12 C4.078125 11.671875 4.078125 11.671875 2 11 C0.30273706 7.26602153 -0.23990744 4.07842654 0 0 Z " fill="#B4ADA8" transform="translate(442,196)"/>
<path d="M0 0 C0.66 0.66 1.32 1.32 2 2 C1.625 5.125 1.625 5.125 1 8 C2.32 8.33 3.64 8.66 5 9 C3.35 9 1.7 9 0 9 C-0.33 7.68 -0.66 6.36 -1 5 C-1.66 5 -2.32 5 -3 5 C-3 6.98 -3 8.96 -3 11 C-3.33 11 -3.66 11 -4 11 C-4 8.03 -4 5.06 -4 2 C-2.68 2 -1.36 2 0 2 C0 1.34 0 0.68 0 0 Z " fill="#AAAAA3" transform="translate(241,324)"/>
<path d="M0 0 C2.31 0.33 4.62 0.66 7 1 C7 1.99 7 2.98 7 4 C6.67 3.34 6.34 2.68 6 2 C4.68 2.33 3.36 2.66 2 3 C2.33 3.66 2.66 4.32 3 5 C2.01 5 1.02 5 0 5 C0 5.99 0 6.98 0 8 C0.99 8.33 1.98 8.66 3 9 C1.68 9 0.36 9 -1 9 C-1 7.68 -1 6.36 -1 5 C-1.66 4.67 -2.32 4.34 -3 4 C-2.01 2.68 -1.02 1.36 0 0 Z " fill="#B0A8A1" transform="translate(170,314)"/>
<path d="M0 0 C0.99 0.495 0.99 0.495 2 1 C2.4140625 2.92578125 2.4140625 2.92578125 2.625 5.3125 C2.69976562 6.09238281 2.77453125 6.87226563 2.8515625 7.67578125 C2.985959 9.78014747 3 11.89134649 3 14 C2.01 13.34 1.02 12.68 0 12 C-0.29296875 9.1796875 -0.29296875 9.1796875 -0.1875 5.875 C-0.16042969 4.77929688 -0.13335937 3.68359375 -0.10546875 2.5546875 C-0.07066406 1.71164062 -0.03585938 0.86859375 0 0 Z " fill="#CDCFC8" transform="translate(188,272)"/>
<path d="M0 0 C0.66 0 1.32 0 2 0 C1.33501617 4.38889325 -0.18757677 7.9811485 -2 12 C-3.125 10.3125 -3.125 10.3125 -4 8 C-3.08326247 4.86781344 -1.81982071 2.72973106 0 0 Z " fill="#BEBCB4" transform="translate(406,266)"/>
<path d="M0 0 C2.875 -0.125 2.875 -0.125 6 0 C6.66 0.66 7.32 1.32 8 2 C8.66 2.33 9.32 2.66 10 3 C9.67 4.32 9.34 5.64 9 7 C7.68 6.67 6.36 6.34 5 6 C4.67 4.35 4.34 2.7 4 1 C2.68 0.67 1.36 0.34 0 0 Z " fill="#A39F9A" transform="translate(288,330)"/>
<path d="M0 0 C0.33 0 0.66 0 1 0 C1.47863248 6.22222222 1.47863248 6.22222222 -0.5 9.4375 C-4.13646461 11.71029038 -6.75782535 11.28281164 -11 11 C-11 10.67 -11 10.34 -11 10 C-8.69 10 -6.38 10 -4 10 C-4 9.01 -4 8.02 -4 7 C-3.34 7 -2.68 7 -2 7 C-1.22227595 4.66682784 -0.57584432 2.38564077 0 0 Z " fill="#949089" transform="translate(334,326)"/>
<path d="M0 0 C1.32 0 2.64 0 4 0 C4.33 0.66 4.66 1.32 5 2 C8.02934491 2.65772428 8.02934491 2.65772428 11 3 C11 3.33 11 3.66 11 4 C9.35567294 4.36109542 7.7094792 4.71370076 6.0625 5.0625 C5.14597656 5.25972656 4.22945313 5.45695312 3.28515625 5.66015625 C2.53105469 5.77230469 1.77695312 5.88445312 1 6 C0 5 0 5 -0.0625 2.4375 C-0.041875 1.633125 -0.02125 0.82875 0 0 Z " fill="#ABA29A" transform="translate(318,328)"/>
<path d="M0 0 C0.99 0.33 1.98 0.66 3 1 C3.6875 3.3125 3.6875 3.3125 4 6 C2.5625 7.8125 2.5625 7.8125 1 9 C-1.125 3.375 -1.125 3.375 0 0 Z " fill="#CED1CD" transform="translate(251,325)"/>
<path d="M0 0 C0.33 0.99 0.66 1.98 1 3 C1.639375 3.144375 2.27875 3.28875 2.9375 3.4375 C5 4 5 4 6.25 6.0625 C6.4975 6.701875 6.745 7.34125 7 8 C5.68 8.33 4.36 8.66 3 9 C0.90250005 6.64031256 0.03094296 5.45383006 -0.1875 2.25 C-0.125625 1.5075 -0.06375 0.765 0 0 Z " fill="#C2C2C0" transform="translate(220,278)"/>
<path d="M0 0 C0.33 0 0.66 0 1 0 C1 2.31 1 4.62 1 7 C-0.9375 7.5625 -0.9375 7.5625 -3 8 C-4 7 -4 7 -4.0625 4.4375 C-4.041875 3.633125 -4.02125 2.82875 -4 2 C-3.01 2.495 -3.01 2.495 -2 3 C-1.34 2.01 -0.68 1.02 0 0 Z " fill="#A39D98" transform="translate(194,329)"/>
<path d="M0 0 C0.33 0.66 0.66 1.32 1 2 C1.99 2.33 2.98 2.66 4 3 C4.6875 5.0625 4.6875 5.0625 5 7 C4.38125 7.144375 3.7625 7.28875 3.125 7.4375 C0.96741678 7.93152225 0.96741678 7.93152225 -1 9 C-1.80967438 6.08517222 -2.21845993 4.53886783 -1.0625 1.6875 C-0.711875 1.130625 -0.36125 0.57375 0 0 Z " fill="#B1AFAA" transform="translate(323,315)"/>
<path d="M0 0 C1.32 0 2.64 0 4 0 C4 0.66 4 1.32 4 2 C1.8828125 3.54296875 1.8828125 3.54296875 -0.875 5.1875 C-1.77992187 5.73792969 -2.68484375 6.28835938 -3.6171875 6.85546875 C-4.40351562 7.23316406 -5.18984375 7.61085938 -6 8 C-6.66 7.67 -7.32 7.34 -8 7 C-8 6.34 -8 5.68 -8 5 C-4.91190305 3.23537317 -3.76687864 3 0 3 C0 2.01 0 1.02 0 0 Z " fill="#B4AEA9" transform="translate(91,279)"/>
<path d="M0 0 C-1.65 0.33 -3.3 0.66 -5 1 C-5 1.66 -5 2.32 -5 3 C-6.98 3 -8.96 3 -11 3 C-11.33 3.99 -11.66 4.98 -12 6 C-13.32 5.67 -14.64 5.34 -16 5 C-4.60227273 -1.70454545 -4.60227273 -1.70454545 0 0 Z " fill="#A49892" transform="translate(140,213)"/>
<path d="M0 0 C1.98 0 3.96 0 6 0 C6.33 1.65 6.66 3.3 7 5 C5.35 5.33 3.7 5.66 2 6 C2 6.99 2 7.98 2 9 C1.34 9 0.68 9 0 9 C0.75 4.25 0.75 4.25 3 2 C2.01 1.34 1.02 0.68 0 0 Z " fill="#9B9189" transform="translate(260,314)"/>
<path d="M0 0 C0.33 0.66 0.66 1.32 1 2 C1.99 1.67 2.98 1.34 4 1 C4.268125 1.969375 4.53625 2.93875 4.8125 3.9375 C5.204375 4.948125 5.59625 5.95875 6 7 C6.99 7.33 7.98 7.66 9 8 C3.51219512 7.51219512 3.51219512 7.51219512 1.125 5.125 C0 3 0 3 0 0 Z " fill="#ABA09C" transform="translate(23,280)"/>
<path d="M0 0 C3 3.625 3 3.625 3 7 C1.68 7.33 0.36 7.66 -1 8 C-1.66 6.68 -2.32 5.36 -3 4 C-2.34 3.67 -1.68 3.34 -1 3 C-0.67 2.01 -0.34 1.02 0 0 Z " fill="#A59F9B" transform="translate(225,329)"/>
<path d="M0 0 C0.66 0.33 1.32 0.66 2 1 C-0.51407619 5.28324091 -2.12314139 7.64531705 -7 9 C-5.44499019 5.18315774 -2.96404505 2.80804268 0 0 Z " fill="#B3ACA3" transform="translate(122,219)"/>
<path d="M0 0 C0.66 0.99 1.32 1.98 2 3 C1.40844669 4.31823302 0.80128537 5.62947051 0.1875 6.9375 C-0.14894531 7.66839844 -0.48539062 8.39929688 -0.83203125 9.15234375 C-2 11 -2 11 -5 12 C-3.68938409 7.76570244 -2.05643741 3.92592596 0 0 Z " fill="#BCB9B3" transform="translate(408,207)"/>
<path d="M0 0 C0.66 1.32 1.32 2.64 2 4 C-1.06246747 5.78409802 -3.22079273 6.22880021 -6.75 6.125 C-7.54921875 6.10695313 -8.3484375 6.08890625 -9.171875 6.0703125 C-9.77515625 6.04710937 -10.3784375 6.02390625 -11 6 C-11 5.67 -11 5.34 -11 5 C-8.36 5 -5.72 5 -3 5 C-2.690625 4.360625 -2.38125 3.72125 -2.0625 3.0625 C-1 1 -1 1 0 0 Z " fill="#A39B95" transform="translate(250,331)"/>
<path d="M0 0 C2.37706418 3.66539668 2.05094317 6.49056835 1.625 10.75 C1.51414063 11.92046875 1.40328125 13.0909375 1.2890625 14.296875 C1.19367188 15.18890625 1.09828125 16.0809375 1 17 C0.34 17 -0.32 17 -1 17 C-1.02699725 14.72923158 -1.04639453 12.45837179 -1.0625 10.1875 C-1.07990234 8.29064453 -1.07990234 8.29064453 -1.09765625 6.35546875 C-1 3 -1 3 0 0 Z " fill="#DADAD4" transform="translate(244,210)"/>
<path d="M0 0 C0 0.66 0 1.32 0 2 C-1.65 2 -3.3 2 -5 2 C-5.33 2.66 -5.66 3.32 -6 4 C-7.98 4 -9.96 4 -12 4 C-11.67 3.01 -11.34 2.02 -11 1 C-9.00390625 0.234375 -9.00390625 0.234375 -6.5625 -0.25 C-5.75941406 -0.42015625 -4.95632813 -0.5903125 -4.12890625 -0.765625 C-2 -1 -2 -1 0 0 Z " fill="#E0E2E2" transform="translate(315,332)"/>
<path d="M0 0 C0.66 2.31 1.32 4.62 2 7 C0.50260417 5.69791667 -0.99479167 4.39583333 -2.4921875 3.09375 C-3.95936421 1.80427542 -3.95936421 1.80427542 -6 2 C-6 1.34 -6 0.68 -6 0 C-3.50907189 -1.24546405 -2.58919267 -0.7767578 0 0 Z " fill="#B8B1A6" transform="translate(293,315)"/>
<path d="M0 0 C2.97 0 5.94 0 9 0 C9.33 1.32 9.66 2.64 10 4 C8.35 4.33 6.7 4.66 5 5 C5.66 3.68 6.32 2.36 7 1 C6.01 1.33 5.02 1.66 4 2 C2.68 1.34 1.36 0.68 0 0 Z " fill="#A69F98" transform="translate(326,313)"/>
<path d="M0 0 C-0.3125 1.875 -0.3125 1.875 -1 4 C-4.4352048 6.29013653 -5.985331 6.17842973 -10 6 C-8.68 5.67 -7.36 5.34 -6 5 C-6 4.34 -6 3.68 -6 3 C-3.89994105 0.39992701 -3.48266577 0 0 0 Z " fill="#B2A6A1" transform="translate(399,284)"/>
<path d="M0 0 C0.66 0 1.32 0 2 0 C1.67 1.32 1.34 2.64 1 4 C0.01 4 -0.98 4 -2 4 C-2.12375 4.61875 -2.2475 5.2375 -2.375 5.875 C-3 8 -3 8 -5 10 C-5 4.67373311 -3.58706631 3.757879 0 0 Z " fill="#B1A89E" transform="translate(315,221)"/>
<path d="M0 0 C1.65 0.33 3.3 0.66 5 1 C1.85408067 3.80045623 -0.067064 4.35261589 -4.25 4.1875 C-5.14203125 4.16042969 -6.0340625 4.13335937 -6.953125 4.10546875 C-7.96632813 4.05326172 -7.96632813 4.05326172 -9 4 C-9 3.67 -9 3.34 -9 3 C-6.36 3 -3.72 3 -1 3 C-0.67 2.01 -0.34 1.02 0 0 Z " fill="#9A8D81" transform="translate(310,333)"/>
<path d="M0 0 C1.5625 1.1875 1.5625 1.1875 3 3 C2.6875 5.6875 2.6875 5.6875 2 8 C1.01 7.34 0.02 6.68 -1 6 C-1.66 5.67 -2.32 5.34 -3 5 C-3.33 4.34 -3.66 3.68 -4 3 C-2.68 3 -1.36 3 0 3 C0 2.01 0 1.02 0 0 Z " fill="#B3AEAA" transform="translate(311,316)"/>
<path d="M0 0 C2.31 0.33 4.62 0.66 7 1 C4.44008376 3.01136276 1.95409701 4.62845496 -1 6 C-1.33 5.01 -1.66 4.02 -2 3 C-1.34 3 -0.68 3 0 3 C0 2.01 0 1.02 0 0 Z " fill="#B9B6B1" transform="translate(332,236)"/>
<path d="M0 0 C2 1 2 1 2.8515625 3.06640625 C3.10679687 3.89011719 3.36203125 4.71382812 3.625 5.5625 C3.88539063 6.38878906 4.14578125 7.21507812 4.4140625 8.06640625 C4.60742188 8.70449219 4.80078125 9.34257812 5 10 C1.125 8.25 1.125 8.25 0 6 C-0.039992 4.00039988 -0.04346799 1.99952758 0 0 Z " fill="#B0A7A0" transform="translate(456,225)"/>
<path d="M0 0 C4.455 0.99 4.455 0.99 9 2 C9 2.66 9 3.32 9 4 C6.36 4 3.72 4 1 4 C0.67 2.68 0.34 1.36 0 0 Z " fill="#CAC8C5" transform="translate(332,224)"/>
<path d="M0 0 C5.62541841 0.45003347 8.61487125 1.68441485 13 5 C12.01 5.495 12.01 5.495 11 6 C8.375 5.0625 8.375 5.0625 6 4 C6 3.34 6 2.68 6 2 C4.35 2 2.7 2 1 2 C0.67 1.34 0.34 0.68 0 0 Z " fill="#A39E99" transform="translate(78,184)"/>
<path d="M0 0 C0.66 0.66 1.32 1.32 2 2 C-2.40914783 3.10228696 -6.48382401 3.07654536 -11 3 C-8.91366797 -1.17266406 -4.08942128 -0.22305934 0 0 Z " fill="#978E88" transform="translate(432,183)"/>
<path d="M0 0 C1.32 0 2.64 0 4 0 C4.33 1.32 4.66 2.64 5 4 C2.69 4 0.38 4 -2 4 C-1.34 2.68 -0.68 1.36 0 0 Z " fill="#D2D8D8" transform="translate(259,332)"/>
<path d="M0 0 C2.29013653 3.4352048 2.17842973 4.985331 2 9 C1.01 9 0.02 9 -1 9 C-2.25541557 5.23375329 -1.37061958 3.62811066 0 0 Z " fill="#C2C2BD" transform="translate(295,323)"/>
<path d="M0 0 C1.98 0.495 1.98 0.495 4 1 C4 4.51716303 3.17554415 5.37121748 1 8 C0.34 6.35 -0.32 4.7 -1 3 C-0.34 2.67 0.32 2.34 1 2 C0.67 1.34 0.34 0.68 0 0 Z " fill="#B2ACAA" transform="translate(329,322)"/>
<path d="M0 0 C-0.99 0.495 -0.99 0.495 -2 1 C-2.33 1.99 -2.66 2.98 -3 4 C-4.65 3.67 -6.3 3.34 -8 3 C-8 2.34 -8 1.68 -8 1 C-3.375 -1.125 -3.375 -1.125 0 0 Z " fill="#DBE2E3" transform="translate(197,319)"/>
<path d="M0 0 C2.1385485 2.1385485 2.42655063 3.13275314 3 6 C-1.75 7.125 -1.75 7.125 -4 6 C-2.68 4.02 -1.36 2.04 0 0 Z " fill="#BDBBAF" transform="translate(355,254)"/>
<path d="M0 0 C1.98 0 3.96 0 6 0 C6.33 0.99 6.66 1.98 7 3 C4.69 3 2.38 3 0 3 C0 2.01 0 1.02 0 0 Z " fill="#D9D7D3" transform="translate(275,332)"/>
<path d="M0 0 C0.66 0.33 1.32 0.66 2 1 C2 2.65 2 4.3 2 6 C0.02 6.99 0.02 6.99 -2 8 C-1.125 1.125 -1.125 1.125 0 0 Z " fill="#DDE2E4" transform="translate(332,325)"/>
<path d="M0 0 C0.66 0 1.32 0 2 0 C2.6875 2.8125 2.6875 2.8125 3 6 C2.01 6.99 1.02 7.98 0 9 C0 6.03 0 3.06 0 0 Z " fill="#D9E1E1" transform="translate(191,324)"/>
<path d="M0 0 C0.66 1.32 1.32 2.64 2 4 C0.35 5.65 -1.3 7.3 -3 9 C-3.33 8.01 -3.66 7.02 -4 6 C-2.0625 2.8125 -2.0625 2.8125 0 0 Z " fill="#BFBAB5" transform="translate(350,217)"/>
<path d="M0 0 C2.64465038 3.1254959 3.84414715 6.08788267 5 10 C3.0625 9.5 3.0625 9.5 1 8 C0.31209578 5.30341548 0.18053536 2.7982981 0 0 Z " fill="#A6A29A" transform="translate(451,214)"/>
<path d="M0 0 C2.475 0.495 2.475 0.495 5 1 C5 1.99 5 2.98 5 4 C3.35 4 1.7 4 0 4 C0 2.68 0 1.36 0 0 Z " fill="#CECAC9" transform="translate(260,323)"/>
<path d="M0 0 C3.125 0.375 3.125 0.375 6 1 C6 2.65 6 4.3 6 6 C5.67 5.01 5.34 4.02 5 3 C2.69 2.67 0.38 2.34 -2 2 C-1.34 1.34 -0.68 0.68 0 0 Z " fill="#E0E4E3" transform="translate(172,316)"/>
<path d="M0 0 C2.475 0.495 2.475 0.495 5 1 C5 1.99 5 2.98 5 4 C4.01 4.33 3.02 4.66 2 5 C1.34 3.35 0.68 1.7 0 0 Z " fill="#C3C1B5" transform="translate(229,313)"/>
<path d="M0 0 C2.64465038 3.1254959 3.84414715 6.08788267 5 10 C4.01 10 3.02 10 2 10 C2 8.35 2 6.7 2 5 C1.01 4.67 0.02 4.34 -1 4 C-0.67 2.68 -0.34 1.36 0 0 Z " fill="#A2A09A" transform="translate(469,251)"/>
<path d="M0 0 C1.32 0.33 2.64 0.66 4 1 C-1.75 5 -1.75 5 -4 5 C-4 4.01 -4 3.02 -4 2 C-2.68 2 -1.36 2 0 2 C0 1.34 0 0.68 0 0 Z " fill="#BDB3B0" transform="translate(282,251)"/>
<path d="M0 0 C1.65 0 3.3 0 5 0 C5.33 1.32 5.66 2.64 6 4 C5.01 4.33 4.02 4.66 3 5 C1.5 3.625 1.5 3.625 0 2 C0 1.34 0 0.68 0 0 Z " fill="#CDD5D5" transform="translate(97,237)"/>
<path d="M0 0 C3.63 0 7.26 0 11 0 C11.33 1.65 11.66 3.3 12 5 C11.34 4.67 10.68 4.34 10 4 C10 3.34 10 2.68 10 2 C6.7 1.67 3.4 1.34 0 1 C0 0.67 0 0.34 0 0 Z " fill="#928B89" transform="translate(146,234)"/>
<path d="M0 0 C4.455 0.99 4.455 0.99 9 2 C7.02 2.99 7.02 2.99 5 4 C5 3.34 5 2.68 5 2 C3.35 2.66 1.7 3.32 0 4 C0 2.68 0 1.36 0 0 Z " fill="#A49D98" transform="translate(351,212)"/>
<path d="M0 0 C0 1.32 0 2.64 0 4 C-2.64 3.67 -5.28 3.34 -8 3 C-8 2.67 -8 2.34 -8 2 C-2.25 0 -2.25 0 0 0 Z " fill="#ADA6A0" transform="translate(299,208)"/>
<path d="M0 0 C1.98 1.65 3.96 3.3 6 5 C4.125 6.0625 4.125 6.0625 2 7 C1.34 6.67 0.68 6.34 0 6 C0 4 0 2 0 0 Z " fill="#C0BEBA" transform="translate(91,190)"/>
<path d="M0 0 C0.99 0.33 1.98 0.66 3 1 C2.67 2.65 2.34 4.3 2 6 C1.01 5.67 0.02 5.34 -1 5 C-0.67 3.35 -0.34 1.7 0 0 Z " fill="#CACDCA" transform="translate(179,329)"/>
<path d="M0 0 C2.64 0.66 5.28 1.32 8 2 C8 2.66 8 3.32 8 4 C2.25 4.125 2.25 4.125 0 3 C0 2.01 0 1.02 0 0 Z " fill="#BBB3AA" transform="translate(460,286)"/>
<path d="M0 0 C2 2 2 2 2.125 5.125 C2.08375 6.07375 2.0425 7.0225 2 8 C1.01 8 0.02 8 -1 8 C-1.125 2.25 -1.125 2.25 0 0 Z " fill="#BDC2BE" transform="translate(467,247)"/>
<path d="M0 0 C0.66 0.99 1.32 1.98 2 3 C0.625 5.5 0.625 5.5 -1 8 C-1.66 8 -2.32 8 -3 8 C-1.125 1.125 -1.125 1.125 0 0 Z " fill="#BEB4AF" transform="translate(395,234)"/>
<path d="M0 0 C2.64 0 5.28 0 8 0 C8.66 1.32 9.32 2.64 10 4 C8.68 3.67 7.36 3.34 6 3 C6 2.34 6 1.68 6 1 C4.02 1 2.04 1 0 1 C0 0.67 0 0.34 0 0 Z " fill="#C4C2BA" transform="translate(202,179)"/>
<path d="M0 0 C-0.375 2.4375 -0.375 2.4375 -1 5 C-1.99 5.495 -1.99 5.495 -3 6 C-3.66 5.67 -4.32 5.34 -5 5 C-5 3 -5 3 -3.625 1.375 C-2 0 -2 0 0 0 Z " fill="#D0D1D2" transform="translate(224,318)"/>
<path d="M0 0 C0.66 0.66 1.32 1.32 2 2 C-0.17424117 4.50037734 -1.73045798 5.43628586 -5 6 C-4.67 5.01 -4.34 4.02 -4 3 C-1.9375 2.3125 -1.9375 2.3125 0 2 C0 1.34 0 0.68 0 0 Z " fill="#BBB5B1" transform="translate(176,281)"/>
</svg>
